<svg width="70" height="70" viewBox="0 0 70 70" fill="none" xmlns="http://www.w3.org/2000/svg">
<circle opacity="0.15" cx="35" cy="35" r="35" fill="url(#paint0_linear_2865_1965)"/>
<path d="M37.9515 32.5778C38.0656 32.3952 38.1863 32.2159 38.3134 32.0366C38.6493 31.5736 39.0438 31.4725 39.422 31.7431C39.7839 32.0039 39.8132 32.4311 39.4937 32.8908C38.108 34.896 37.619 37.0902 38.0461 39.4964C38.8481 44.0056 43.3508 47.1943 47.86 46.4216C52.9463 45.5511 56.1056 40.781 54.9058 35.7828C53.8592 31.4171 49.4315 28.5674 45.0104 29.3956C43.7225 29.6369 42.5585 30.1325 41.4891 30.8791C40.9707 31.241 40.4197 31.0812 40.2664 30.5433C40.1523 30.1455 40.3675 29.8912 40.6707 29.6793C41.1794 29.3206 41.7075 29.0109 42.2553 28.75C40.4784 29.5814 38.9818 30.9182 37.9515 32.5778Z" fill="white"/>
<path d="M23.6199 28.2668C29.5108 28.2668 32.2642 34.3499 32.9046 37.3914L36.4262 38.1918C36.7464 40.433 37.2586 43.4104 36.7464 37.3914C36.2341 31.3724 42.616 28.8004 45.8709 28.2668L45.5508 26.9862L43.6298 25.5455H29.0625L24.5802 26.1858L23.6199 27.9467C21.1653 28.0534 17.7289 28.2668 23.6199 28.2668Z" fill="#F5DE5D"/>
<path d="M20.59 40.2561C20.2021 41.0354 19.8434 41.7526 19.4913 42.4699C19.3674 42.721 19.2076 42.9362 18.9207 43.0014C18.6338 43.0666 18.3827 42.9721 18.1969 42.7471C17.985 42.4895 17.9817 42.2026 18.1317 41.9092C18.6403 40.8952 19.1457 39.8812 19.651 38.8639C19.7391 38.6911 19.8206 38.515 19.9086 38.3422C20.0488 38.0684 20.2575 37.8988 20.577 37.889C20.9161 37.8825 21.1345 38.0651 21.2813 38.352C21.5225 38.8248 21.7605 39.2975 22.0344 39.842C22.6865 38.5281 23.3027 37.2891 23.919 36.0501C24.02 35.8513 24.1113 35.6459 24.2124 35.447C24.3526 35.1764 24.5547 34.9938 24.8775 34.9872C25.2133 34.9807 25.4383 35.147 25.5883 35.4404C26.6545 37.5793 27.7271 39.7116 28.79 41.8505C29.0248 42.3232 28.9107 42.7243 28.5162 42.9297C28.1249 43.1318 27.7304 42.9818 27.4924 42.5058C26.7197 40.9734 25.9567 39.4345 25.1873 37.8956C25.109 37.7423 25.0275 37.5891 24.9134 37.3771C24.5678 38.0618 24.2515 38.6813 23.9418 39.3041C23.1527 40.8821 22.3702 42.4602 21.5812 44.035C21.3497 44.4947 20.9911 44.6512 20.5998 44.4882C20.189 44.3154 20.0325 43.9176 20.2347 43.4839C20.4857 42.9427 20.7498 42.4047 21.0367 41.8831C21.1867 41.6092 21.216 41.3777 21.04 41.1038C20.877 40.8626 20.7628 40.5887 20.59 40.2561Z" fill="#595959"/>
<path d="M22.7555 34.3063C22.7523 35.5064 21.787 36.4554 20.5771 36.4456C19.3738 36.439 18.4313 35.477 18.4346 34.2639C18.4378 33.0638 19.4031 32.1181 20.6163 32.1246C21.8131 32.1311 22.7555 33.0899 22.7555 34.3063Z" fill="#595959"/>
<path d="M30.0526 35.0826C30.0297 35.4217 29.896 35.6533 29.6286 35.7674C29.3514 35.8848 29.0644 35.8783 28.8394 35.6467C28.7285 35.5326 28.6405 35.3858 28.5655 35.2424C28.0013 34.1792 27.1926 33.364 26.1229 32.8096C26.0316 32.7607 25.937 32.715 25.8523 32.653C25.5294 32.415 25.4446 32.0334 25.637 31.6975C25.8262 31.3616 26.1979 31.2247 26.5599 31.4008C28.1024 32.1378 29.2373 33.289 29.9775 34.8282C30.0199 34.9195 30.033 35.0239 30.0526 35.0826Z" fill="#595959"/>
<path d="M30.6765 37.9022C30.67 38.3229 30.3439 38.6262 29.92 38.6066C29.5188 38.5903 29.2319 38.2773 29.2384 37.8729C29.2449 37.4522 29.571 37.1489 29.995 37.1685C30.3928 37.1848 30.6831 37.4979 30.6765 37.9022Z" fill="#595959"/>
<path d="M54.0357 31.1537C52.3696 29.2981 50.0286 28.0654 47.3975 27.8404C47.4529 27.86 47.5214 27.8763 47.5963 27.886C50.1721 28.1828 52.4218 29.3731 54.0357 31.1537Z" fill="white"/>
<path d="M56.1602 34.8862C56.1634 34.896 56.1667 34.9057 56.1699 34.9187C56.1667 34.9057 56.1634 34.896 56.1602 34.8862Z" fill="white"/>
<path d="M44.6027 47.7936C44.5539 47.784 44.5019 47.7744 44.4531 47.7649C44.5051 47.7744 44.5539 47.784 44.6027 47.7936Z" fill="white"/>
<path d="M55.9453 34.2797C55.9681 34.3384 55.9909 34.4003 56.0137 34.4589C55.9942 34.4003 55.9714 34.3416 55.9453 34.2797Z" fill="white"/>
<path d="M45.1402 47.8816C45.072 47.8721 45.0038 47.8625 44.9355 47.8529C45.0038 47.8625 45.072 47.8721 45.1402 47.8816Z" fill="white"/>
<path d="M44.0527 47.6702C44.033 47.6637 44.01 47.6605 43.9902 47.6541C44.01 47.6605 44.033 47.667 44.0527 47.6702Z" fill="white"/>
<path d="M45.6677 47.9373C45.5895 47.9309 45.508 47.9245 45.4297 47.9149C45.508 47.9245 45.5895 47.9309 45.6677 47.9373Z" fill="white"/>
<path d="M37.0747 41.4136C37.0421 41.3288 37.0127 41.2408 36.9834 41.156C37.0127 41.2408 37.0421 41.3288 37.0747 41.4136Z" fill="white"/>
<path d="M54.6914 31.9681C54.7728 32.0788 54.8543 32.1961 54.9292 32.3101C54.8543 32.1928 54.7728 32.0788 54.6914 31.9681Z" fill="white"/>
<path d="M55.5723 33.4255C55.6047 33.4937 55.6372 33.5587 55.6697 33.6269C55.6372 33.5587 55.6047 33.4904 55.5723 33.4255Z" fill="white"/>
<path d="M54.1299 31.2638C54.2437 31.3939 54.3542 31.5304 54.4615 31.667C54.3575 31.5304 54.2469 31.3971 54.1299 31.2638Z" fill="white"/>
<path d="M55.1348 32.6267C55.1804 32.7016 55.2227 32.7766 55.2683 32.8515C55.2227 32.7798 55.1804 32.7016 55.1348 32.6267Z" fill="white"/>
<path d="M47.6802 47.9116C47.6215 47.918 47.5596 47.9244 47.501 47.9308C47.5629 47.9244 47.6215 47.918 47.6802 47.9116Z" fill="white"/>
<path d="M46.5255 47.9767C46.5842 47.9767 46.6462 47.9735 46.7049 47.9735C46.6201 47.9735 46.5321 47.9767 46.4473 47.9767C46.4734 47.9767 46.4994 47.9767 46.5255 47.9767Z" fill="white"/>
<path d="M47.2163 47.9507C47.1347 47.9571 47.0532 47.9604 46.9717 47.9668C47.0532 47.9636 47.1347 47.9571 47.2163 47.9507Z" fill="white"/>
<path d="M46.1867 47.9701C46.1019 47.9669 46.0171 47.9637 45.9355 47.9605C46.0171 47.9637 46.1019 47.9669 46.1867 47.9701Z" fill="white"/>
<path d="M48.0762 47.8594C48.0692 47.8594 48.0656 47.863 48.0586 47.863C48.0656 47.863 48.0692 47.8594 48.0762 47.8594Z" fill="white"/>
<path d="M36.5498 39.3758C36.6313 39.9367 36.7618 40.478 36.9314 41.0063C36.7781 40.5237 36.6574 40.0182 36.5759 39.4997C36.5694 39.4541 36.5596 39.4149 36.5498 39.3758Z" fill="white"/>
<path d="M36.9805 41.1556C36.9645 41.1068 36.9486 41.058 36.9326 41.006C36.9454 41.0548 36.9645 41.1036 36.9805 41.1556Z" fill="#595959"/>
<path d="M48.0565 47.8627C47.933 47.8819 47.8062 47.8946 47.6826 47.9106C47.8062 47.8946 47.9297 47.8819 48.0565 47.8627Z" fill="#595959"/>
<path d="M54.0361 31.153C54.0688 31.1889 54.1015 31.2282 54.131 31.2642C54.1015 31.2282 54.0688 31.1922 54.0361 31.153Z" fill="#595959"/>
<path d="M47.5021 47.9312C47.4074 47.9408 47.3095 47.9472 47.2148 47.9536C47.3128 47.944 47.4074 47.9376 47.5021 47.9312Z" fill="#595959"/>
<path d="M44.9364 47.8529C44.8257 47.8366 44.7149 47.8138 44.6074 47.7943C44.7149 47.8138 44.8257 47.8333 44.9364 47.8529Z" fill="#595959"/>
<path d="M44.4556 47.7646C44.3223 47.7354 44.1857 47.7061 44.0557 47.6736C44.1857 47.7029 44.319 47.7354 44.4556 47.7646Z" fill="#595959"/>
<path d="M45.9324 47.9602C45.8411 47.9538 45.7531 47.9474 45.665 47.941C45.7563 47.9474 45.8444 47.9538 45.9324 47.9602Z" fill="#595959"/>
<path d="M46.9702 47.967C46.8822 47.9702 46.7941 47.9734 46.7061 47.9734C46.7941 47.9734 46.8822 47.9702 46.9702 47.967Z" fill="#595959"/>
<path d="M45.4269 47.9175C45.3289 47.9079 45.2343 47.8951 45.1396 47.8823C45.2343 47.8951 45.3322 47.9079 45.4269 47.9175Z" fill="#595959"/>
<path d="M46.4487 47.9767C46.3607 47.9767 46.2726 47.9735 46.1846 47.9703C46.2759 47.9735 46.3607 47.9767 46.4487 47.9767Z" fill="#595959"/>
<path d="M54.4668 31.6681C54.5451 31.766 54.6202 31.8672 54.692 31.9684C54.6202 31.8672 54.5451 31.766 54.4668 31.6681Z" fill="#595959"/>
<path d="M44.2576 28.0621C43.8663 28.1502 43.488 28.261 43.1162 28.3947C43.4847 28.261 43.8663 28.1502 44.2576 28.0621Z" fill="#595959"/>
<path d="M42.4194 28.6783C42.3673 28.7011 42.3119 28.7271 42.2598 28.75C42.3119 28.7239 42.3673 28.7011 42.4194 28.6783Z" fill="#595959"/>
<path d="M43.035 28.424C42.9243 28.4663 42.8168 28.5087 42.7061 28.5543C42.8135 28.5087 42.9243 28.4663 43.035 28.424Z" fill="#595959"/>
<path d="M37.9518 32.5778C37.9388 32.5976 37.929 32.6142 37.916 32.6341C37.929 32.6142 37.942 32.5943 37.9518 32.5778Z" fill="#595959"/>
<path d="M56.5015 36.3175C56.4232 35.8349 56.3058 35.3687 56.1656 34.9155C56.4558 35.8545 56.6123 36.8522 56.6123 37.889C56.6123 42.9329 52.9085 47.1128 48.0732 47.8594C48.2037 47.8399 48.3373 47.8203 48.4678 47.7942C53.7594 46.7998 57.3655 41.6483 56.5015 36.3175Z" fill="#595959"/>
<path d="M37.6584 33.0831C36.9737 34.3221 36.5727 35.6621 36.452 37.1065C36.4357 37.3119 36.4357 37.4488 36.1651 37.3608C35.3076 37.0739 34.4534 37.1749 33.6187 37.4162C33.0971 32.9429 30.8702 29.8553 26.6414 28.3131C26.0089 28.0816 25.3503 27.9349 24.6753 27.8892C24.395 27.8697 24.346 27.7686 24.4862 27.5306C24.9525 26.7285 25.6535 26.3666 26.5697 26.3666C32.1972 26.3666 37.8214 26.3666 43.4489 26.3666C43.6739 26.3666 43.8956 26.3894 44.1173 26.4416C44.7401 26.585 45.1835 26.9469 45.5193 27.4784C45.666 27.7099 45.6367 27.8175 45.4476 27.8664C45.803 27.8273 46.1649 27.8077 46.5333 27.8077C46.8268 27.8077 47.1169 27.824 47.4039 27.8468C47.2311 27.7816 47.1398 27.6577 47.068 27.4328C46.6931 26.2557 45.9008 25.4798 44.7238 25.0852C44.2738 24.9353 43.8141 24.8994 43.3511 24.932C43.0414 24.9516 42.8523 24.9027 42.9305 24.5342C42.9436 24.4755 42.9273 24.4136 42.9338 24.3549C43.0381 23.0996 41.9557 21.9813 40.5928 22.0237C38.7344 22.0824 36.8726 22.0367 35.0109 22.0367C33.1362 22.0367 31.2582 22.0367 29.3834 22.0367C27.9717 22.0367 27.0783 22.9236 27.075 24.3256C27.075 24.9157 27.075 24.919 26.4523 24.919C24.8677 24.919 23.6744 25.6265 23.0843 27.0741C22.8234 27.7132 22.4843 27.8273 21.917 27.9055C20.3031 28.1272 18.8424 28.7565 17.5317 29.7183C17.1503 29.9987 17.0818 30.3867 17.3231 30.7388C17.5513 31.0747 17.9719 31.1496 18.3534 30.9149C18.4544 30.853 18.549 30.7747 18.6501 30.7095C20.5705 29.4379 22.6832 28.9554 24.9427 29.3564C29.7649 30.2172 32.8753 34.6774 31.9331 39.4898C31.2386 43.0339 29.0378 45.3619 25.5491 46.2194C21.9822 47.0964 18.9207 46.0009 16.6384 43.1024C14.2746 40.1028 14.242 36.0859 16.4264 32.8907C16.7623 32.3984 16.7394 31.9745 16.3612 31.7072C15.9863 31.4398 15.5722 31.5605 15.2299 32.0561C13.5475 34.5046 12.9932 37.188 13.629 40.0865C14.8027 45.4271 20.0488 48.769 25.3177 47.804C29.5106 47.0345 32.9927 43.4317 33.459 39.216C33.4883 38.9519 33.5959 38.8606 33.8307 38.8182C34.4893 38.7008 35.1316 38.5867 35.8195 38.7562C36.2336 38.8573 36.4455 38.9454 36.5466 39.3757C36.4749 38.8899 36.4357 38.3943 36.4357 37.889C36.439 36.1479 36.8792 34.5112 37.6584 33.0831Z" fill="#595959"/>
<path d="M37.0742 41.4135C38.2252 44.5533 40.84 46.8454 43.9929 47.6573C40.7944 46.8291 38.2121 44.4718 37.0742 41.4135Z" fill="#595959"/>
<path d="M44.6934 27.9708C44.6769 27.9741 44.6604 27.9774 44.6406 27.9807C44.6604 27.9774 44.6769 27.9741 44.6934 27.9708Z" fill="#595959"/>
<path d="M56.0176 34.459C56.0696 34.5988 56.1151 34.7419 56.1606 34.885C56.1151 34.7419 56.0663 34.5988 56.0176 34.459Z" fill="#595959"/>
<path d="M54.9316 32.3104C55 32.4147 55.0684 32.5221 55.1368 32.6296C55.0684 32.5189 55 32.4147 54.9316 32.3104Z" fill="#595959"/>
<path d="M55.6719 33.6277C55.7729 33.8394 55.8641 34.0577 55.9488 34.2792C55.8608 34.0577 55.7696 33.8394 55.6719 33.6277Z" fill="#595959"/>
<path d="M55.2666 32.8549C55.3741 33.0406 55.4784 33.2296 55.5728 33.425C55.4751 33.2296 55.3741 33.0406 55.2666 32.8549Z" fill="#595959"/>
<path d="M56.6137 37.8891C56.6137 36.8555 56.4572 35.8578 56.167 34.9155C56.1638 34.9058 56.1605 34.896 56.1573 34.8829C56.1116 34.7395 56.0627 34.596 56.0138 34.4558C55.991 34.3939 55.9682 34.3352 55.9453 34.2765C55.8606 34.0548 55.7693 33.8363 55.6682 33.6244C55.6356 33.5559 55.603 33.4875 55.5704 33.4223C55.4758 33.2299 55.3715 33.0375 55.2639 32.8517C55.2215 32.7767 55.1759 32.6984 55.1302 32.6267C55.065 32.5191 54.9966 32.4115 54.9248 32.3072C54.8466 32.1898 54.7683 32.0757 54.6868 31.9648C54.6118 31.8638 54.5368 31.766 54.4618 31.6649C54.3542 31.5279 54.2434 31.391 54.1293 31.2606C54.0967 31.2247 54.0673 31.1856 54.0347 31.1497C52.4208 29.3663 50.1711 28.1762 47.5954 27.8828C47.5204 27.873 47.4519 27.86 47.3965 27.8371C47.1096 27.811 46.8194 27.798 46.5259 27.798C46.1575 27.798 45.7956 27.8176 45.4402 27.8567C45.4011 27.8665 45.3554 27.8763 45.3033 27.8828C45.0979 27.9056 44.8957 27.9349 44.6968 27.9675C44.6805 27.9708 44.6642 27.9741 44.6447 27.9773C44.5142 28.0002 44.3871 28.0295 44.2567 28.0588C43.8654 28.1501 43.4839 28.2577 43.1155 28.3914C43.0894 28.4012 43.0601 28.411 43.034 28.4207C42.9232 28.4631 42.8156 28.5055 42.7047 28.5512C42.6102 28.5903 42.5123 28.6327 42.4178 28.6751C42.3656 28.6979 42.3102 28.724 42.258 28.7468C41.7103 29.0076 41.1821 29.3174 40.6735 29.676C40.3702 29.8879 40.155 30.1423 40.2692 30.54C40.4224 31.0813 40.9767 31.2378 41.4918 30.8759C42.5612 30.1292 43.7252 29.6336 45.0131 29.3924C49.4342 28.5642 53.8619 31.4138 54.9085 35.7796C56.1084 40.7778 52.949 45.5478 47.8627 46.4184C43.3535 47.1911 38.8476 44.0024 38.0488 39.4932C37.6217 37.0837 38.1108 34.8895 39.4964 32.8875C39.8127 32.4278 39.7866 32.0007 39.4247 31.7399C39.0465 31.4693 38.652 31.5671 38.3162 32.0333C38.189 32.2094 38.0684 32.392 37.9542 32.5745C37.9412 32.5941 37.9314 32.6104 37.9184 32.63C37.8271 32.7767 37.7423 32.9299 37.6576 33.0799C36.8816 34.508 36.4414 36.148 36.4414 37.8891C36.4414 38.3944 36.4805 38.89 36.5523 39.3758C36.562 39.4149 36.5718 39.4541 36.5783 39.4997C36.6599 40.0181 36.7805 40.5202 36.9337 41.006C36.95 41.0549 36.9663 41.1038 36.9826 41.156C37.012 41.244 37.0413 41.3288 37.0739 41.4136C38.2151 44.4719 40.7941 46.8292 43.9926 47.6573C44.0121 47.6638 44.035 47.6671 44.0545 47.6736C44.1882 47.7062 44.3219 47.7388 44.4556 47.7649C44.5045 47.7747 44.5566 47.7845 44.6055 47.7943C44.7164 47.8138 44.824 47.8366 44.9348 47.8529C45.0033 47.8627 45.0718 47.8725 45.1403 47.8823C45.2348 47.8953 45.3326 47.9084 45.4272 47.9182C45.5054 47.9279 45.5869 47.9345 45.6652 47.941C45.7532 47.9475 45.8445 47.9573 45.9325 47.9605C46.0173 47.9638 46.0988 47.9671 46.1836 47.9703C46.2716 47.9736 46.3597 47.9768 46.4477 47.9768C46.5325 47.9768 46.6172 47.9768 46.7053 47.9736C46.7933 47.9736 46.8813 47.9703 46.9694 47.9671C47.0509 47.9638 47.1324 47.9573 47.2139 47.9508C47.3084 47.9442 47.4063 47.9377 47.5008 47.9279C47.5595 47.9214 47.6214 47.9149 47.6801 47.9084C47.8073 47.8953 47.9312 47.879 48.0551 47.8595C48.0616 47.8595 48.0649 47.8562 48.0714 47.8562C52.9099 47.1161 56.6137 42.9362 56.6137 37.8891Z" fill="#595959"/>
<path d="M37.9144 32.6332C37.8234 32.7795 37.7356 32.9291 37.6543 33.0819C37.7388 32.9291 37.8234 32.7795 37.9144 32.6332Z" fill="white"/>
<path d="M44.6437 27.9806C44.5137 28.0066 44.3869 28.0326 44.2568 28.0619C44.3836 28.0326 44.5137 28.0033 44.6437 27.9806Z" fill="white"/>
<path d="M42.7062 28.5544C42.6082 28.5936 42.5136 28.636 42.4189 28.6784C42.5136 28.6327 42.6082 28.5936 42.7062 28.5544Z" fill="white"/>
<path d="M43.1127 28.3946C43.0867 28.4042 43.0573 28.4138 43.0312 28.4234C43.0606 28.4138 43.0867 28.4042 43.1127 28.3946Z" fill="white"/>
<path d="M45.3035 27.886C45.3589 27.8795 45.4013 27.873 45.4404 27.86C45.1895 27.886 44.9419 27.9251 44.6943 27.9707C44.8963 27.9349 45.0983 27.9088 45.3035 27.886Z" fill="white"/>
<path d="M34.9985 24.9225C32.9574 24.9225 30.9196 24.916 28.8786 24.9291C28.5884 24.9323 28.5037 24.8638 28.5069 24.5638C28.52 23.7062 28.7286 23.4811 29.6024 23.4811C33.202 23.4811 36.8015 23.4811 40.401 23.4811C41.2683 23.4811 41.4769 23.7094 41.4932 24.5703C41.4998 24.8802 41.3954 24.9323 41.1183 24.9291C39.0773 24.916 37.0362 24.9225 34.9985 24.9225Z" fill="#F5DE5D"/>
<path d="M20.6063 35.0039C20.2378 35.0104 19.8856 34.6712 19.8791 34.2995C19.8693 33.931 20.2117 33.5788 20.5835 33.569C20.9488 33.5624 21.3042 33.9049 21.314 34.2734C21.3173 34.6419 20.9748 34.9973 20.6063 35.0039Z" fill="#F5DE5D"/>
<path d="M43.6446 40.2496C43.2501 41.0452 42.9013 41.7559 42.5459 42.4634C42.2883 42.9753 41.9166 43.1416 41.5025 42.9395C41.0754 42.7341 40.9776 42.3167 41.2384 41.7918C41.796 40.6702 42.3633 39.5519 42.9208 38.427C43.0708 38.1238 43.2664 37.9021 43.6251 37.8923C44.0098 37.8825 44.2185 38.114 44.3717 38.4335C44.5902 38.8867 44.8249 39.3302 45.0858 39.8453C45.6466 38.727 46.1747 37.6804 46.6997 36.6305C46.8953 36.2425 47.0844 35.8545 47.28 35.4665C47.417 35.1927 47.6256 35.0166 47.9452 35.0101C48.2842 35.0003 48.5092 35.1796 48.6527 35.4698C49.7188 37.6087 50.7883 39.7442 51.8479 41.8863C52.0761 42.3493 51.9457 42.7536 51.5349 42.946C51.1502 43.1286 50.7785 42.9819 50.547 42.5221C49.771 40.9897 49.0081 39.4508 48.2386 37.9119C48.1604 37.7554 48.0788 37.6021 47.9941 37.4326C47.8213 37.5434 47.7887 37.713 47.7202 37.8532C46.7192 39.8421 45.7248 41.8342 44.7304 43.8263C44.6782 43.9339 44.626 44.0415 44.5673 44.1458C44.3391 44.524 43.9837 44.6479 43.6153 44.4719C43.224 44.286 43.0839 43.9143 43.2762 43.4937C43.5207 42.9655 43.762 42.4341 44.0555 41.932C44.2446 41.6059 44.2413 41.3419 44.0424 41.0354C43.9022 40.8169 43.8044 40.5659 43.6446 40.2496Z" fill="#595959"/>
<path d="M43.6403 32.1246C44.8469 32.1246 45.8024 33.0768 45.8024 34.2834C45.8024 35.49 44.8534 36.4455 43.6436 36.4488C42.437 36.4521 41.4782 35.4966 41.4815 34.2899C41.4847 33.0768 42.4337 32.1246 43.6403 32.1246Z" fill="#595959"/>
<path d="M35.3875 27.8012C36.2711 27.8273 37.2851 28.3654 38.0056 29.4318C38.3089 29.8786 38.2469 30.3221 37.872 30.5699C37.51 30.808 37.1253 30.6971 36.7993 30.2601C35.8081 28.9263 34.1844 28.9361 33.1867 30.2764C32.8672 30.7036 32.4662 30.808 32.1108 30.5601C31.7521 30.309 31.6999 29.8883 31.9738 29.4546C32.6063 28.4437 33.7703 27.8045 35.3875 27.8012Z" fill="#595959"/>
<path d="M49.2664 31.3225C49.4849 31.3193 49.6153 31.3943 49.749 31.4627C51.1644 32.19 52.234 33.2596 52.958 34.6749C53.196 35.1413 53.0917 35.5457 52.6938 35.7478C52.3123 35.9402 51.9112 35.8098 51.6894 35.3696C51.0894 34.1792 50.2023 33.289 48.999 32.7085C48.637 32.5324 48.5196 32.2128 48.6207 31.8443C48.7153 31.5051 48.9827 31.3421 49.2664 31.3225Z" fill="#595959"/>
<path d="M52.9958 37.1685C53.4001 37.162 53.7132 37.4522 53.7295 37.8533C53.7458 38.2772 53.4425 38.6034 53.0219 38.6099C52.5979 38.6164 52.2849 38.3033 52.2881 37.8794C52.2946 37.475 52.5914 37.175 52.9958 37.1685Z" fill="#595959"/>
<path d="M43.6565 33.569C44.025 33.5755 44.3674 33.931 44.3609 34.2995C44.3511 34.6712 43.9989 35.0104 43.6304 35.0039C43.2586 34.9941 42.9162 34.6419 42.926 34.2734C42.9358 33.9016 43.288 33.5624 43.6565 33.569Z" fill="#F5DE5D"/>
<defs>
<linearGradient id="paint0_linear_2865_1965" x1="35" y1="0" x2="35" y2="70" gradientUnits="userSpaceOnUse">
<stop stop-color="#A6A6A6"/>
<stop offset="1" stop-color="#A6A6A6" stop-opacity="0"/>
</linearGradient>
</defs>
</svg>
