<svg width="70" height="70" viewBox="0 0 70 70" fill="none" xmlns="http://www.w3.org/2000/svg">
<circle opacity="0.15" cx="35" cy="35" r="35" fill="url(#paint0_linear_2865_1962)"/>
<path d="M49.0277 40.8342H47.9989V29.0027H48.5133C50.2155 29.0027 51.5998 27.6184 51.5998 25.9162V19.7433C51.5998 19.4593 51.3693 19.2289 51.0854 19.2289C50.8014 19.2289 50.5709 19.4593 50.5709 19.7433V23.3442C50.5709 24.195 49.8785 24.8874 49.0277 24.8874C48.1769 24.8874 47.4845 24.195 47.4845 23.3442V19.7433C47.4845 19.4593 47.254 19.2289 46.9701 19.2289C46.6861 19.2289 46.4556 19.4593 46.4556 19.7433V23.3442C46.4556 24.195 45.7632 24.8874 44.9124 24.8874C44.0616 24.8874 43.3692 24.195 43.3692 23.3442V19.7433C43.3692 19.4593 43.1387 19.2289 42.8548 19.2289C42.5708 19.2289 42.3403 19.4593 42.3403 19.7433V25.9162C42.3403 27.6184 43.7246 29.0027 45.4268 29.0027H45.9412V36.2045H44.9124V29.9996C42.8856 29.7455 41.3115 28.0109 41.3115 25.9162V19.7433C41.3115 18.8925 42.0039 18.2001 42.8548 18.2001C43.7056 18.2001 44.398 18.8925 44.398 19.7433V23.3442C44.398 23.6281 44.6285 23.8586 44.9124 23.8586C45.1964 23.8586 45.4268 23.6281 45.4268 23.3442V19.7433C45.4268 18.8925 46.1192 18.2001 46.9701 18.2001C47.8209 18.2001 48.5133 18.8925 48.5133 19.7433V23.3442C48.5133 23.6281 48.7437 23.8586 49.0277 23.8586C49.3117 23.8586 49.5421 23.6281 49.5421 23.3442V19.7433C49.5421 18.8925 50.2345 18.2001 51.0854 18.2001C51.9362 18.2001 52.6286 18.8925 52.6286 19.7433V25.9162C52.6286 28.0109 51.0545 29.7455 49.0277 29.9996V40.8342Z" fill="#595959"/>
<path d="M48.8097 47.5753H20.623C19.9465 47.5753 19.3975 48.1243 19.3975 48.8008V50.0263C19.3975 50.7028 19.9465 51.2518 20.623 51.2518H48.8097C49.4862 51.2518 50.0352 50.7028 50.0352 50.0263V48.8008C50.0352 48.1243 49.4862 47.5753 48.8097 47.5753Z" fill="#F5DE5D"/>
<path d="M36.5542 34.0946H32.8777C26.4481 34.0946 21.2354 39.3073 21.2354 45.7369H48.1966C48.1966 39.3073 42.9839 34.0946 36.5542 34.0946Z" fill="#F5DE5D"/>
<path d="M20.6215 48.1871C20.2832 48.1871 20.0087 48.4616 20.0087 48.7999V50.0254C20.0087 50.3636 20.2832 50.6381 20.6215 50.6381H48.8082C49.1465 50.6381 49.421 50.3636 49.421 50.0254V48.7999C49.421 48.4616 49.1465 48.1871 48.8082 48.1871H20.6215ZM48.8082 51.8636H20.6215C19.608 51.8636 18.7832 51.0389 18.7832 50.0254V48.7999C18.7832 47.7864 19.608 46.9616 20.6215 46.9616H48.8082C49.8217 46.9616 50.6465 47.7864 50.6465 48.7999V50.0254C50.6465 51.0389 49.8217 51.8636 48.8082 51.8636Z" fill="#595959"/>
<path d="M48.8098 45.7369H47.5843C47.5843 39.6553 42.6363 34.7073 36.5547 34.7073H32.8782C26.7966 34.7073 21.8486 39.6553 21.8486 45.7369H20.623C20.623 38.9795 26.1207 33.4818 32.8782 33.4818H36.5547C43.3122 33.4818 48.8098 38.9795 48.8098 45.7369Z" fill="#595959"/>
<path d="M40.843 34.7072H39.6175V30.4179C39.6175 30.0796 39.343 29.8051 39.0047 29.8051H30.4262C30.0879 29.8051 29.8134 30.0796 29.8134 30.4179V34.7072H28.5879V30.4179C28.5879 29.4044 29.4127 28.5796 30.4262 28.5796H39.0047C40.0182 28.5796 40.843 29.4044 40.843 30.4179V34.7072Z" fill="#595959"/>
<path d="M38.3921 34.0933H37.1666V32.255H32.2646V34.0933H31.0391V31.0295H38.3921V34.0933Z" fill="#595959"/>
<path d="M24.298 45.7369H23.0723C23.0723 45.3 23.1011 44.8605 23.1587 44.4303L24.3734 44.5921C24.3232 44.969 24.298 45.3539 24.298 45.7369" fill="#595959"/>
<path d="M24.6091 43.4489L23.4277 43.1217C24.4002 39.6002 27.3408 36.8551 30.9193 36.1277L31.1632 37.3294C28.0326 37.9648 25.4602 40.3668 24.6091 43.4489Z" fill="#595959"/>
<path d="M21.4315 40.8342H20.4026V30.8263C18.0441 30.2409 16.8018 28.5521 16.8018 25.9162C16.8018 22.712 18.5574 18.2001 22.4603 18.2001C26.3631 18.2001 28.1188 22.712 28.1188 25.9162C28.1188 28.5521 26.8765 30.2409 24.5179 30.8263V36.2045H23.4891V29.9822L23.9104 29.905C26.0504 29.512 27.09 28.2074 27.09 25.9162C27.09 23.2192 25.6188 19.2289 22.4603 19.2289C19.3018 19.2289 17.8306 23.2192 17.8306 25.9162C17.8306 28.2074 18.8702 29.512 21.0102 29.905L21.4315 29.9822V40.8342Z" fill="#595959"/>
<defs>
<linearGradient id="paint0_linear_2865_1962" x1="35" y1="0" x2="35" y2="70" gradientUnits="userSpaceOnUse">
<stop stop-color="#A6A6A6"/>
<stop offset="1" stop-color="#A6A6A6" stop-opacity="0"/>
</linearGradient>
</defs>
</svg>
