<svg width="70" height="70" viewBox="0 0 70 70" fill="none" xmlns="http://www.w3.org/2000/svg">
<circle opacity="0.15" cx="35" cy="35" r="35" fill="url(#paint0_linear_2865_1964)"/>
<path d="M58.0727 39.2563C57.8346 40.0254 57.2639 40.4191 56.5588 40.7488C54.2514 41.8323 51.8035 42.2535 49.2916 42.4702C47.2008 42.6503 45.1132 42.6899 43.0255 42.5343C41.3193 42.4061 39.6162 42.2382 37.9131 42.0643C37.5285 42.0246 37.2386 42.0704 36.9303 42.3481C33.7499 45.1958 30.5482 48.019 27.3739 50.8728C26.907 51.291 26.4858 51.4527 25.8662 51.2482C25.152 51.0102 24.4042 50.882 23.6717 50.6958C22.8506 50.4882 22.6644 49.9968 23.1436 49.304C24.9536 46.67 26.7666 44.039 28.5734 41.4019C28.6803 41.2463 28.8359 41.1089 28.8634 40.8861C26.733 40.5931 24.6148 40.3062 22.4935 40.0101C20.5371 39.7385 18.5776 39.4821 16.6303 39.1677C15.7299 39.0243 15.0828 38.2887 14.9333 37.4097C14.7837 36.5459 15.1836 35.6608 15.9771 35.1908C16.2213 35.0443 16.2671 34.9161 16.2182 34.6322C15.7757 32.0959 15.3606 29.5534 14.9394 27.0109C14.8326 26.3761 15.1317 26.0159 15.7848 26.0068C16.6425 25.9946 17.5002 26.019 18.3548 25.9976C18.8248 25.9854 19.1056 26.1869 19.3101 26.5989C20.3417 28.6927 21.3947 30.7773 22.4264 32.8711C22.5576 33.1397 22.7011 33.2557 23.0215 33.2557C26.0981 33.2404 29.1747 33.2465 32.2513 33.2465C32.3581 33.2465 32.468 33.2465 32.6328 33.2465C32.1536 32.1722 31.6928 31.1436 31.2319 30.115C30.4383 28.3417 29.6417 26.5714 28.8512 24.7981C28.488 23.9832 28.781 23.5223 29.6722 23.5101C30.5146 23.4979 31.357 23.504 32.1994 23.4796C32.584 23.4674 32.8648 23.6078 33.112 23.8916C35.7613 26.9102 38.4228 29.9197 41.066 32.9413C41.2735 33.1794 41.4811 33.2587 41.7832 33.2557C43.5657 33.2465 45.3512 33.2465 47.1337 33.2679C49.3129 33.2923 51.3182 33.9241 53.1892 35.0259C54.3124 35.6852 55.4295 36.3536 56.568 36.9854C57.2242 37.3517 57.8194 37.7546 58.0818 38.4993C58.0727 38.7496 58.0727 39.0029 58.0727 39.2563Z" fill="#595959"/>
<path d="M19.0956 24.0045C17.7496 24.0045 16.4006 24.0045 15.0545 24.0045C13.7848 24.0045 12.7196 22.9607 12.5945 21.6025C12.4816 20.3938 13.385 19.1821 14.5906 18.9746C15.0301 18.8983 15.4422 18.8403 15.8084 18.5259C16.1289 18.2512 16.5623 18.1657 16.9957 18.2054C17.2155 18.2237 17.3376 18.1474 17.4688 17.9643C18.1647 17.0059 19.1292 16.6 20.2921 16.7801C21.4031 16.954 22.1661 17.6102 22.5568 18.6694C22.63 18.8708 22.6972 18.944 22.9353 18.9196C24.1164 18.8006 25.2396 19.6369 25.551 20.8333C25.8562 22.0084 25.2488 23.2629 24.1439 23.7604C23.7685 23.9282 23.39 24.0198 22.9688 24.0137C21.6778 23.9954 20.3867 24.0045 19.0956 24.0045Z" fill="#595959"/>
<path d="M41.2059 51.8709C39.8568 51.8709 38.5078 51.8709 37.1587 51.8709C35.8707 51.8709 34.7566 50.7416 34.6956 49.3742C34.6376 48.1045 35.715 46.8836 36.9878 46.8104C37.2838 46.7921 37.5097 46.7188 37.7417 46.5235C38.1384 46.1877 38.6207 46.0382 39.1457 46.0687C39.3502 46.0809 39.4631 46.0168 39.5882 45.8459C40.275 44.9028 41.2242 44.4816 42.3688 44.6464C43.4981 44.8082 44.2825 45.4674 44.6823 46.5448C44.7708 46.7829 44.8715 46.8165 45.1035 46.8043C46.3427 46.728 47.4323 47.5765 47.704 48.7943C47.9634 49.9663 47.3346 51.1628 46.2206 51.6542C45.8818 51.8037 45.543 51.8831 45.1676 51.877C43.846 51.8617 42.5275 51.8709 41.2059 51.8709Z" fill="#595959"/>
<path d="M51.1274 29.2482C49.7784 29.2482 48.4324 29.2512 47.0833 29.2482C45.8136 29.2451 44.8034 28.2776 44.6294 26.898C44.489 25.784 45.3436 24.5295 46.479 24.2762C47.007 24.1602 47.5228 24.0931 47.9654 23.7268C48.2462 23.4948 48.6338 23.4307 49.0001 23.4643C49.2412 23.4857 49.3725 23.4155 49.5159 23.2171C50.1752 22.3228 51.0817 21.8924 52.1804 22.0176C53.3098 22.1458 54.1369 22.7654 54.555 23.8336C54.6741 24.1419 54.8175 24.1846 55.0983 24.1816C56.2643 24.1633 57.2684 24.9202 57.5675 26.0159C57.8788 27.1605 57.421 28.3112 56.4016 28.9063C56.0109 29.1352 55.5989 29.2634 55.1288 29.2573C53.795 29.236 52.4612 29.2482 51.1274 29.2482Z" fill="#595959"/>
<path d="M21.3091 33.9608C21.5563 34.5956 22.0385 34.7207 22.6825 34.7177C30.5907 34.6994 38.4989 34.7146 46.4071 34.6994C48.3208 34.6963 50.1277 35.0687 51.8308 35.9447C52.0811 36.0729 52.2825 36.2621 52.2825 36.4941C52.2825 36.6925 51.9681 36.7108 51.7942 36.8084C51.5897 36.9275 51.3546 36.8664 51.1318 36.8695C50.5275 36.8756 49.9232 36.8817 49.3188 36.8664C49.0655 36.8603 48.9312 36.8969 48.9587 37.1991C48.9923 37.5593 48.8458 38.0354 49.0289 38.2552C49.2212 38.4871 49.7126 38.3071 50.0727 38.3254C50.2681 38.3345 50.4695 38.3009 50.6618 38.3315C51.7392 38.4932 52.7159 38.1605 53.5431 37.544C54.0253 37.1839 54.3 37.3517 54.6785 37.5837C55.2156 37.9133 55.762 38.2246 56.3083 38.539C56.4579 38.6245 56.6166 38.7191 56.6074 38.9083C56.6013 39.1189 56.4243 39.1922 56.2534 39.2746C54.419 40.1506 52.4962 40.6786 50.4665 40.8831C48.7176 41.0571 46.9717 41.2097 45.2167 41.1822C43.5319 41.1578 41.8563 40.9716 40.1806 40.8159C39.7503 40.7763 39.3138 40.7885 38.8438 40.6603C39.2131 40.3306 39.5611 40.0132 39.9121 39.6988C40.1776 39.4638 40.376 39.2013 40.2356 38.8198C40.1013 38.4566 39.8174 38.3437 39.4451 38.3101C36.8751 38.0812 34.3052 37.834 31.7353 37.5959C31.3812 37.5623 31.1126 37.6966 30.9143 37.9957C30.6365 38.4169 30.3252 38.8168 30.0658 39.2471C29.9162 39.4974 29.7422 39.5462 29.4797 39.5096C27.9811 39.296 26.4825 39.0915 24.9839 38.8839C23.0397 38.6153 21.0985 38.3467 19.1542 38.0781C18.4736 37.9835 17.793 37.8981 17.1123 37.8004C16.7156 37.7424 16.4164 37.5471 16.3676 37.1259C16.3249 36.7443 16.5446 36.4941 16.8773 36.3353C17.0147 36.2682 17.152 36.198 17.2924 36.1339C17.6678 35.9599 17.8265 35.673 17.7838 35.2549C17.738 34.8245 17.5915 34.4064 17.6068 33.9669C17.7411 33.8081 17.9303 33.8143 18.1104 33.8143C19.0047 33.8081 19.899 33.8112 20.7933 33.8143C20.9794 33.8143 21.1595 33.8295 21.3091 33.9608Z" fill="white"/>
<path d="M37.7869 39.6256C37.0452 40.291 36.3616 40.9044 35.6748 41.5149C32.7691 44.097 29.8482 46.6669 26.9639 49.2735C26.4969 49.6947 26.0788 49.9053 25.4867 49.6306C25.3737 49.5787 25.2455 49.5604 25.1204 49.5421C24.8549 49.5024 24.8335 49.4108 24.9892 49.1911C25.8804 47.9153 26.7594 46.6303 27.6415 45.3454C29.0089 43.3584 30.3762 41.3714 31.7375 39.3784C31.8779 39.1708 32.0122 39.0792 32.2808 39.1067C34.0755 39.2868 35.8763 39.4486 37.7869 39.6256Z" fill="#F5DE5D"/>
<path d="M39.2918 33.2557C38.0068 33.2557 36.728 33.1733 35.4674 33.2832C34.4907 33.3686 34.0604 33.0207 33.7002 32.1417C32.7663 29.8647 31.7163 27.6336 30.7122 25.3872C30.5229 24.9599 30.529 25.0087 30.9807 24.9385C31.7529 24.8195 32.2566 25.1095 32.7632 25.6985C34.8234 28.1067 36.9416 30.4691 39.0354 32.8528C39.13 32.9596 39.2643 33.0512 39.2918 33.2557Z" fill="#F5DE5D"/>
<path d="M21.3078 33.9608C20.0748 33.9638 18.8447 33.9669 17.6117 33.9669C17.4438 33.0329 17.2698 32.0959 17.1111 31.1619C16.9188 30.0326 16.7448 28.8972 16.5434 27.7679C16.5007 27.5207 16.5465 27.4596 16.7998 27.4505C18.0573 27.4138 18.0603 27.4077 18.625 28.5462C19.5193 30.35 20.4136 32.1539 21.3078 33.9608Z" fill="#F5DE5D"/>
<path d="M19.1163 22.5221C17.7825 22.5221 16.4487 22.5282 15.1149 22.519C14.6022 22.516 14.1505 22.1313 14.0589 21.6581C13.9643 21.1636 14.2329 20.669 14.706 20.4584C14.9501 20.3485 15.2035 20.3668 15.4507 20.4126C15.7956 20.4767 16.0398 20.3607 16.2534 20.0951C16.6502 19.6006 16.7814 19.57 17.3644 19.7746C17.9016 19.9608 18.2159 19.8356 18.4235 19.2922C18.628 18.7549 18.9607 18.3855 19.5375 18.2665C20.4532 18.0772 21.3109 18.8007 21.2468 19.7288C21.2223 20.1012 21.2376 20.437 21.5886 20.6507C21.9213 20.8553 22.2265 20.727 22.5287 20.5469C22.9621 20.2905 23.4321 20.3271 23.7801 20.6202C24.1341 20.9194 24.2562 21.3712 24.1005 21.7986C23.9388 22.2412 23.5664 22.516 23.072 22.519C21.7534 22.5282 20.4349 22.5221 19.1163 22.5221Z" fill="white"/>
<path d="M41.198 50.4159C39.9069 50.4159 38.6159 50.422 37.3248 50.4128C36.8212 50.4098 36.4336 50.19 36.2443 49.7015C36.0887 49.3016 36.165 48.9292 36.4488 48.6117C36.7113 48.3186 37.0532 48.1812 37.4347 48.2759C37.862 48.3827 38.1702 48.2728 38.4144 47.9187C38.6769 47.5402 39.0126 47.4699 39.443 47.6317C40.0534 47.8637 40.3129 47.7294 40.5723 47.0975C40.7829 46.5846 41.1278 46.2244 41.6955 46.1389C42.2663 46.0504 42.7424 46.2275 43.0995 46.6976C43.3223 46.9906 43.3986 47.3234 43.362 47.6867C43.3254 48.0286 43.3895 48.3339 43.7038 48.5293C44.0213 48.7277 44.3082 48.6269 44.6042 48.4499C45.0895 48.1599 45.5168 48.1812 45.8892 48.4865C46.2524 48.7826 46.3836 49.2192 46.2371 49.6527C46.0723 50.1442 45.6847 50.4128 45.1109 50.4159C43.8076 50.4189 42.5043 50.4159 41.198 50.4159Z" fill="white"/>
<path d="M51.1341 27.7993C49.8156 27.7993 48.4971 27.8054 47.1755 27.7962C46.5864 27.7932 46.1225 27.3413 46.098 26.7857C46.0706 26.166 46.4582 25.7111 47.0778 25.644C47.1968 25.6318 47.325 25.6684 47.4471 25.6837C47.8073 25.7325 48.1033 25.6562 48.317 25.3234C48.5459 24.9663 48.8572 24.838 49.2876 24.9937C49.9896 25.2471 50.2093 25.1342 50.5054 24.4351C50.7679 23.8184 51.2745 23.4796 51.9094 23.4979C52.5015 23.5131 53.0021 23.8856 53.2096 24.4564C53.289 24.6732 53.292 24.896 53.2707 25.1189C53.2371 25.4547 53.3378 25.7325 53.6247 25.9187C53.9238 26.1111 54.2046 26.0225 54.4885 25.8546C55.1477 25.4669 55.8345 25.647 56.1122 26.2698C56.4327 26.9903 55.9047 27.7901 55.0867 27.7962C53.7712 27.8084 52.4527 27.7993 51.1341 27.7993Z" fill="white"/>
<path d="M30.8186 36.8911C30.1104 36.8911 30.1104 36.8911 30.1104 36.1859C30.1104 35.4044 30.1104 35.4044 30.8736 35.4044C31.5971 35.4044 31.5971 35.4044 31.5971 36.1371C31.5971 36.8911 31.5971 36.8911 30.8186 36.8911Z" fill="#595959"/>
<path d="M36.6053 36.8912C35.9063 36.8912 35.9062 36.8912 35.9062 36.186C35.9062 35.4075 35.9063 35.4075 36.7061 35.4075C37.3899 35.4075 37.3899 35.4075 37.3899 36.0974C37.393 36.8912 37.393 36.8912 36.6053 36.8912Z" fill="#595959"/>
<path d="M24.332 36.1462C24.332 35.4044 24.332 35.4044 25.0769 35.4044C25.7852 35.4044 25.7852 35.4044 25.7852 36.134C25.7852 36.8911 25.7852 36.8911 25.025 36.8911C24.332 36.8911 24.332 36.8911 24.332 36.1462Z" fill="#595959"/>
<path d="M27.9708 35.4044C28.6791 35.4044 28.6791 35.4044 28.6791 36.1005C28.6791 36.8881 28.6791 36.8881 27.9006 36.8881C27.2168 36.8881 27.2168 36.8881 27.2168 36.2195C27.2168 36.192 27.2168 36.1646 27.2168 36.1371C27.2198 35.4044 27.2199 35.4044 27.9708 35.4044Z" fill="#595959"/>
<path d="M33.0293 36.1096C33.0293 35.4075 33.0293 35.4075 33.7314 35.4075C34.4733 35.4075 34.4733 35.4075 34.4733 36.1524C34.4733 36.8911 34.4733 36.8911 33.7284 36.8911C33.0293 36.8911 33.0293 36.8911 33.0293 36.1096Z" fill="#595959"/>
<path d="M40.2836 36.1523C40.2836 36.8911 40.2836 36.8911 39.5448 36.8911C38.8213 36.8911 38.8213 36.8911 38.8213 36.1737C38.8213 35.4075 38.8213 35.4075 39.5845 35.4075C40.2836 35.4044 40.2836 35.4044 40.2836 36.1523Z" fill="#595959"/>
<path d="M43.1719 36.1798C43.1719 36.8911 43.1719 36.8911 42.4453 36.8911C41.7188 36.8911 41.7188 36.8911 41.7188 36.1432C41.7188 35.4044 41.7188 35.4044 42.4606 35.4044C43.1719 35.4044 43.1719 35.4044 43.1719 36.1798Z" fill="#595959"/>
<defs>
<linearGradient id="paint0_linear_2865_1964" x1="35" y1="0" x2="35" y2="70" gradientUnits="userSpaceOnUse">
<stop stop-color="#A6A6A6"/>
<stop offset="1" stop-color="#A6A6A6" stop-opacity="0"/>
</linearGradient>
</defs>
</svg>
