<svg width="70" height="70" viewBox="0 0 70 70" fill="none" xmlns="http://www.w3.org/2000/svg">
<circle opacity="0.15" cx="35" cy="35.8615" r="35" fill="url(#paint0_linear_2865_1966)"/>
<path d="M52.9671 30.8674C51.9137 31.4889 50.7225 31.8526 49.4947 31.9281C48.1482 31.8263 46.8485 31.3988 45.7131 30.684C44.3502 29.8188 42.7823 29.3116 41.1609 29.2119C39.9515 29.2568 38.7665 29.559 37.6885 30.0977V20.7662C38.7417 20.1445 39.9328 19.7804 41.1609 19.7052C42.5074 19.8071 43.8071 20.2345 44.9425 20.9493C46.3054 21.8145 47.8733 22.3217 49.4947 22.4214C50.7041 22.3763 51.8891 22.0746 52.9671 21.5369V30.8674Z" fill="#FFD800" fill-opacity="0.5"/>
<path d="M52.6362 20.6941C52.4373 20.5877 52.1964 20.5994 52.0087 20.7244C51.0105 21.3696 49.8666 21.7545 48.6812 21.844C47.4964 21.7523 46.3528 21.3676 45.3538 20.7244C44.1545 19.9458 42.7749 19.4893 41.3482 19.3996C40.284 19.44 39.2413 19.712 38.2927 20.1967V19.9894C38.2851 19.3396 37.9342 18.7421 37.3701 18.4194C36.8059 18.0967 36.113 18.0967 35.5488 18.4194C34.9847 18.7421 34.6338 19.3396 34.6262 19.9894V35.2876H32.7929C32.4554 35.2876 32.1818 35.5612 32.1818 35.8987C32.1818 36.2362 32.4554 36.5098 32.7929 36.5098H39.1223C39.6145 36.4912 40.0434 36.8432 40.1208 37.3298C40.1484 37.5882 40.0646 37.8463 39.8908 38.0394C39.7171 38.2325 39.4693 38.343 39.2094 38.343H37.6816C37.3442 38.343 37.0705 38.6167 37.0705 38.9541C37.0705 39.2916 37.3442 39.5652 37.6816 39.5652H39.2094C39.7157 39.5652 40.126 39.9755 40.126 40.4818C40.126 40.9882 39.7157 41.3985 39.2094 41.3985H37.6816C37.3442 41.3985 37.0705 41.6721 37.0705 42.0096C37.0705 42.347 37.3442 42.6207 37.6816 42.6207H39.2094C39.7157 42.6207 40.126 43.031 40.126 43.5373C40.126 44.0436 39.7157 44.4539 39.2094 44.4539H37.6816C37.3442 44.4539 37.0705 44.7276 37.0705 45.065C37.0705 45.4025 37.3442 45.6761 37.6816 45.6761H39.2094C39.7157 45.6761 40.126 46.0864 40.126 46.5927C40.126 47.0991 39.7157 47.5094 39.2094 47.5094H32.5831C31.7724 47.5072 30.9946 47.8297 30.4227 48.4044L29.7374 49.0897L22.0468 41.3984L28.38 35.0651C29.4093 34.0304 30.8097 33.4504 32.269 33.4545H32.7933C33.1308 33.4545 33.4044 33.1809 33.4044 32.8434C33.4044 32.5059 33.1308 32.2323 32.7933 32.2323H32.269C30.4853 32.2274 28.7737 32.9364 27.5161 34.2011L21.1746 40.5423C20.8222 40.2411 20.3704 40.0812 19.9066 40.0933C19.4431 40.1055 19.0003 40.2891 18.6643 40.6086L16.4728 42.7998C16.2379 43.039 16.2398 43.4229 16.4769 43.6599C16.714 43.897 17.0978 43.8989 17.337 43.664L19.5288 41.4725H19.5285C19.7699 41.2409 20.1511 41.2409 20.3925 41.4725L29.6636 50.7436C29.9015 50.9826 29.9018 51.3689 29.6639 51.6079L27.4724 53.7991C27.3562 53.9134 27.2904 54.0694 27.2896 54.2323C27.2888 54.3954 27.3532 54.552 27.4686 54.6672C27.5837 54.7826 27.7403 54.847 27.9034 54.8461C28.0663 54.8453 28.2223 54.7796 28.3366 54.6634L30.5284 52.4719H30.5281C30.8571 52.1407 31.0473 51.6963 31.0596 51.2298C31.0718 50.763 30.9054 50.3093 30.5944 49.9612L31.2874 49.2686C31.6319 48.9259 32.0976 48.7328 32.5835 48.7314H39.2097C39.7796 48.7317 40.326 48.5044 40.7276 48.0999C41.1292 47.6956 41.3526 47.1478 41.3485 46.5779C41.3442 46.008 41.1128 45.4632 40.7052 45.0649C41.1166 44.663 41.3485 44.1122 41.3485 43.5372C41.3485 42.9621 41.1166 42.4113 40.7052 42.0094C41.1164 41.6076 41.3485 41.057 41.3485 40.4823C41.3485 39.9072 41.1169 39.3564 40.7058 38.9545C40.7366 38.924 40.7666 38.8932 40.7958 38.861C41.2015 38.4108 41.3982 37.8107 41.3376 37.2077C41.2678 36.6719 41.0037 36.1803 40.5953 35.8263C40.1869 35.4724 39.6628 35.2806 39.1227 35.2875H38.2931V31.3536C39.2198 30.794 40.2679 30.4664 41.3485 30.3987C42.5333 30.4904 43.6769 30.8751 44.676 31.5183C45.8753 32.2969 47.2549 32.7534 48.6816 32.8431C50.1084 32.7533 51.488 32.2969 52.6872 31.5183C52.8572 31.4048 52.9592 31.2141 52.9592 31.0098V21.2324C52.9592 21.007 52.8351 20.8 52.6365 20.6936L52.6362 20.6941ZM35.8483 35.2876V19.9894C35.851 19.8265 35.9201 19.6716 36.0393 19.5603C36.1585 19.4493 36.3178 19.3911 36.4807 19.3996C36.8061 19.3999 37.0702 19.664 37.0705 19.9894V35.2876H35.8483ZM51.7367 30.6665C50.8097 31.2258 49.7615 31.5531 48.6812 31.6211C47.4964 31.5294 46.3528 31.1448 45.3537 30.5015C44.1545 29.7229 42.7749 29.2665 41.3481 29.1767C40.2839 29.2171 39.2412 29.4891 38.2927 29.9739V21.5764C39.2194 21.0169 40.2675 20.6893 41.3481 20.6216C42.5329 20.7133 43.6766 21.0979 44.6756 21.7412C45.8749 22.5197 47.2545 22.9762 48.6812 23.066C49.7454 23.0253 50.7881 22.7539 51.7367 22.2699V30.6665Z" fill="#595959"/>
<defs>
<linearGradient id="paint0_linear_2865_1966" x1="35" y1="0.86145" x2="35" y2="70.8615" gradientUnits="userSpaceOnUse">
<stop stop-color="#A6A6A6"/>
<stop offset="1" stop-color="#A6A6A6" stop-opacity="0"/>
</linearGradient>
</defs>
</svg>
