<svg width="70" height="70" viewBox="0 0 70 70" fill="none" xmlns="http://www.w3.org/2000/svg">
<circle opacity="0.15" cx="35" cy="35" r="35" fill="url(#paint0_linear_2865_1961)"/>
<path d="M30.1922 29.6659H39.9963C41.3499 29.6659 42.4473 30.7634 42.4473 32.117V48.0486H27.7412V32.117C27.7412 30.7634 28.8387 29.6659 30.1922 29.6659Z" fill="#F5DE5D"/>
<path d="M28.3534 47.4356H41.8341V32.1167C41.8341 31.1032 41.0095 30.2785 39.9958 30.2785H30.1917C29.178 30.2785 28.3534 31.1032 28.3534 32.1167V47.4356ZM43.0596 48.6611H27.1279V32.1167C27.1279 30.4274 28.5026 29.053 30.1917 29.053H39.9958C41.6849 29.053 43.0596 30.4274 43.0596 32.1167V48.6611Z" fill="#595959"/>
<path d="M42.4473 35.1806H27.7412V33.9549H42.4473V35.1806Z" fill="#595959"/>
<path d="M38.1598 41.3083H36.9343V43.1466C36.9343 44.1601 36.1097 44.9848 35.096 44.9848C34.0823 44.9848 33.2577 44.1601 33.2577 43.1466V41.3083H32.0322V43.1466C32.0322 44.8359 33.4069 46.2103 35.096 46.2103C36.7851 46.2103 38.1598 44.8359 38.1598 43.1466V41.3083Z" fill="#595959"/>
<path d="M32.0341 38.8571H38.1617V37.6313H32.0341V38.8571ZM39.3872 40.0829H30.8086V36.4056H39.3872V40.0829Z" fill="#595959"/>
<path d="M35.7121 39.3167H34.4863V36.8651H35.7121V39.3167Z" fill="#595959"/>
<path d="M54.0899 48.6611H44.2858V47.4356H52.8644V25.9892C52.8644 25.6509 52.5899 25.3764 52.2517 25.3764H41.2221C40.8838 25.3764 40.6093 25.6509 40.6093 25.9892V27.8274H39.3838V25.9892C39.3838 24.9757 40.2084 24.1509 41.2221 24.1509H52.2517C53.2653 24.1509 54.0899 24.9757 54.0899 25.9892V48.6611Z" fill="#595959"/>
<path d="M25.9047 48.6611H16.1006V25.9892C16.1006 24.9757 16.9252 24.1509 17.9389 24.1509H28.9685C29.9821 24.1509 30.8067 24.9757 30.8067 25.9892V27.8274H29.5812V25.9892C29.5812 25.6509 29.3067 25.3764 28.9685 25.3764H17.9389C17.6006 25.3764 17.3261 25.6509 17.3261 25.9892V47.4356H25.9047V48.6611Z" fill="#595959"/>
<path d="M52.8635 24.7637H51.638V23.5379C51.638 23.1996 51.3635 22.9251 51.0252 22.9251H42.4467C42.1084 22.9251 41.8339 23.1996 41.8339 23.5379V24.7637H40.6084V23.5379C40.6084 22.5242 41.433 21.6993 42.4467 21.6993H51.0252C52.0389 21.6993 52.8635 22.5242 52.8635 23.5379V24.7637Z" fill="#595959"/>
<path d="M29.5823 24.7637H28.3568V23.5379C28.3568 23.1996 28.0822 22.9251 27.744 22.9251H19.1654C18.8272 22.9251 18.5527 23.1996 18.5527 23.5379V24.7637H17.3271V23.5379C17.3271 22.5242 18.1517 21.6993 19.1654 21.6993H27.744C28.7577 21.6993 29.5823 22.5242 29.5823 23.5379V24.7637Z" fill="#595959"/>
<path d="M39.9965 26.6022H30.1924V25.3765H39.9965V26.6022Z" fill="#595959"/>
<path d="M49.1887 29.0532H50.4144V27.8274H49.1887V29.0532ZM51.6402 30.2789H47.9629V26.6017H51.6402V30.2789Z" fill="#595959"/>
<path d="M44.2873 29.0532H45.513V27.8274H44.2873V29.0532ZM46.7388 30.2789H43.0615V26.6017H46.7388V30.2789Z" fill="#595959"/>
<path d="M49.1887 33.9549H50.4144V32.7291H49.1887V33.9549ZM51.6402 35.1806H47.9629V31.5034H51.6402V35.1806Z" fill="#595959"/>
<path d="M45.5136 44.9843H50.4156V43.7586H45.5136V44.9843ZM51.6412 46.2101H44.2881V42.5328H51.6412V46.2101Z" fill="#595959"/>
<path d="M45.5136 40.0823H50.4156V38.8565H45.5136V40.0823ZM51.6412 41.3081H44.2881V37.6308H51.6412V41.3081Z" fill="#595959"/>
<path d="M48.5763 45.5966H47.3506V43.1451H48.5763V45.5966Z" fill="#595959"/>
<path d="M48.5763 40.6952H47.3506V38.2437H48.5763V40.6952Z" fill="#595959"/>
<path d="M19.7775 29.0532H21.0033V27.8274H19.7775V29.0532ZM22.229 30.2789H18.5518V26.6017H22.229V30.2789Z" fill="#595959"/>
<path d="M24.6799 29.0532H25.9056V27.8274H24.6799V29.0532ZM27.1314 30.2789H23.4541V26.6017H27.1314V30.2789Z" fill="#595959"/>
<path d="M19.7775 33.9549H21.0033V32.7291H19.7775V33.9549ZM22.229 35.1806H18.5518V31.5034H22.229V35.1806Z" fill="#595959"/>
<path d="M19.7773 44.9843H24.6793V43.7586H19.7773V44.9843ZM25.9048 46.2101H18.5518V42.5328H25.9048V46.2101Z" fill="#595959"/>
<path d="M19.7773 40.0823H24.6793V38.8565H19.7773V40.0823ZM25.9048 41.3081H18.5518V37.6308H25.9048V41.3081Z" fill="#595959"/>
<path d="M22.84 45.5966H21.6143V43.1451H22.84V45.5966Z" fill="#595959"/>
<path d="M22.84 40.6952H21.6143V38.2437H22.84V40.6952Z" fill="#595959"/>
<defs>
<linearGradient id="paint0_linear_2865_1961" x1="35" y1="0" x2="35" y2="70" gradientUnits="userSpaceOnUse">
<stop stop-color="#A6A6A6"/>
<stop offset="1" stop-color="#A6A6A6" stop-opacity="0"/>
</linearGradient>
</defs>
</svg>
