<svg width="70" height="70" viewBox="0 0 70 70" fill="none" xmlns="http://www.w3.org/2000/svg">
<circle opacity="0.15" cx="35" cy="35" r="35" fill="url(#paint0_linear_2865_1963)"/>
<path d="M38.4059 47.1761C38.4059 49.8833 40.6008 52.0781 43.3079 52.0781C46.0151 52.0781 48.21 49.8833 48.21 47.1761C48.21 44.469 46.0151 42.2741 43.3079 42.2741C40.6008 42.2741 38.4059 44.469 38.4059 47.1761Z" fill="#F5DE5D"/>
<path d="M22.4733 47.1761C22.4733 49.8833 24.6682 52.0781 27.3753 52.0781C30.0825 52.0781 32.2773 49.8833 32.2773 47.1761C32.2773 44.469 30.0825 42.2741 27.3753 42.2741C24.6682 42.2741 22.4733 44.469 22.4733 47.1761Z" fill="#F5DE5D"/>
<path d="M43.3075 42.8862C45.6721 42.8862 47.5968 44.8109 47.5968 47.1755C47.5968 49.5401 45.6721 51.4648 43.3075 51.4648C40.9429 51.4648 39.0182 49.5401 39.0182 47.1755C39.0182 44.8109 40.9429 42.8862 43.3075 42.8862ZM43.3075 52.6903C46.3486 52.6903 48.8223 50.2166 48.8223 47.1755C48.8223 44.1344 46.3486 41.6607 43.3075 41.6607C40.2664 41.6607 37.7927 44.1344 37.7927 47.1755C37.7927 50.2166 40.2664 52.6903 43.3075 52.6903Z" fill="#595959"/>
<path d="M43.3088 45.9499C43.9846 45.9499 44.5343 46.4996 44.5343 47.1754C44.5343 47.8513 43.9846 48.4009 43.3088 48.4009C42.6329 48.4009 42.0832 47.8513 42.0832 47.1754C42.0832 46.4996 42.6329 45.9499 43.3088 45.9499ZM43.3088 49.6264C44.6605 49.6264 45.7598 48.5272 45.7598 47.1754C45.7598 45.8237 44.6605 44.7244 43.3088 44.7244C41.957 44.7244 40.8577 45.8237 40.8577 47.1754C40.8577 48.5272 41.957 49.6264 43.3088 49.6264Z" fill="#595959"/>
<path d="M27.3768 42.8862C29.7414 42.8862 31.6661 44.8109 31.6661 47.1755C31.6661 49.5401 29.7414 51.4648 27.3768 51.4648C25.0122 51.4648 23.0875 49.5401 23.0875 47.1755C23.0875 44.8109 25.0122 42.8862 27.3768 42.8862ZM27.3768 52.6903C30.4179 52.6903 32.8916 50.2166 32.8916 47.1755C32.8916 44.1344 30.4179 41.6607 27.3768 41.6607C24.3357 41.6607 21.862 44.1344 21.862 47.1755C21.862 50.2166 24.3357 52.6903 27.3768 52.6903Z" fill="#595959"/>
<path d="M27.3752 45.9499C28.051 45.9499 28.6007 46.4996 28.6007 47.1754C28.6007 47.8513 28.051 48.4009 27.3752 48.4009C26.6993 48.4009 26.1497 47.8513 26.1497 47.1754C26.1497 46.4996 26.6993 45.9499 27.3752 45.9499ZM27.3752 49.6264C28.7269 49.6264 29.8262 48.5272 29.8262 47.1754C29.8262 45.8237 28.7269 44.7244 27.3752 44.7244C26.0234 44.7244 24.9241 45.8237 24.9241 47.1754C24.9241 48.5272 26.0234 49.6264 27.3752 49.6264Z" fill="#595959"/>
<path d="M20.0248 49.0143H20.6388V47.7888H20.0248C19.6872 47.7888 19.412 47.5161 19.412 47.1803C19.4096 44.293 19.4041 36.951 19.4059 32.4669C19.4059 30.7793 20.7791 29.4062 22.466 29.4062H42.1158C42.9265 29.4062 43.6311 29.9276 43.8701 30.7034L45.9069 37.3242L49.641 37.739C50.5736 37.8425 51.2764 38.6281 51.2764 39.5656V47.176C51.2764 47.5142 51.0019 47.7888 50.6637 47.7888H50.0509V49.0143H50.6637C51.6772 49.0143 52.502 48.1895 52.502 47.176V39.5656C52.502 38.0025 51.3304 36.6936 49.7764 36.5202L46.8419 36.1942L45.0417 30.3431C44.6434 29.0495 43.4675 28.1807 42.1158 28.1807H22.466C20.1032 28.1807 18.1804 30.1035 18.1804 32.4669C18.1786 36.951 18.1841 44.2942 18.1865 47.1815C18.1872 48.1919 19.0125 49.0143 20.0248 49.0143" fill="#595959"/>
<path d="M34.1141 49.0143H38.4043V47.7885H34.1141V49.0143Z" fill="#595959"/>
<path d="M32.2768 46.5636H38.4043V45.3381H32.2768V46.5636Z" fill="#595959"/>
<path d="M21.8606 47.1754H23.0861V33.6948C23.0861 33.3566 23.3606 33.0821 23.6989 33.0821H41.5962L43.8327 42.5889L45.0264 42.3077L42.7892 32.8008C42.6574 32.2451 42.1679 31.8566 41.5962 31.8566H23.6989C22.6854 31.8566 21.8606 32.6813 21.8606 33.6948V47.1754Z" fill="#595959"/>
<path d="M48.2075 46.5636H51.8848V45.3378H48.2075V46.5636Z" fill="#595959"/>
<path d="M18.7961 46.5636H20.6348V45.3378H18.7961V46.5636Z" fill="#595959"/>
<path d="M22.473 37.9845H43.3066V36.759H22.473V37.9845Z" fill="#595959"/>
<path d="M32.2784 37.372H33.5039V32.47H32.2784V37.372Z" fill="#595959"/>
<path d="M34.7306 37.372H35.9561V32.47H34.7306V37.372Z" fill="#595959"/>
<path d="M33.504 44.1115H34.7295V37.3713H33.504V44.1115Z" fill="#595959"/>
<path d="M41.9342 17.811C42.8815 17.811 43.6524 18.4915 43.6524 19.3277V23.3721C43.6524 24.2083 42.8815 24.8888 41.9342 24.8888H22.4615C21.5142 24.8888 20.7433 24.2083 20.7433 23.3721V19.3277C20.7433 18.4915 21.5142 17.811 22.4615 17.811H41.9342ZM22.4615 25.8999H41.9342C43.5132 25.8999 44.7979 24.766 44.7979 23.3721V19.3277C44.7979 17.9339 43.5132 16.7999 41.9342 16.7999H22.4615C20.8825 16.7999 19.5979 17.9339 19.5979 19.3277V23.3721C19.5979 24.766 20.8825 25.8999 22.4615 25.8999Z" fill="#595959"/>
<path d="M28.6007 25.1169H29.8262V17.4169H28.6007V25.1169Z" fill="#595959"/>
<path d="M26.1514 25.1169H27.377V17.4169H26.1514V25.1169Z" fill="#595959"/>
<path d="M35.9552 25.1169H37.1807V17.4169H35.9552V25.1169Z" fill="#595959"/>
<path d="M38.4054 25.1169H39.6309V17.4169H38.4054V25.1169Z" fill="#595959"/>
<defs>
<linearGradient id="paint0_linear_2865_1963" x1="35" y1="0" x2="35" y2="70" gradientUnits="userSpaceOnUse">
<stop stop-color="#A6A6A6"/>
<stop offset="1" stop-color="#A6A6A6" stop-opacity="0"/>
</linearGradient>
</defs>
</svg>
